<svg width="51" height="50" viewBox="0 0 51 50" fill="none" xmlns="http://www.w3.org/2000/svg">
<path d="M49.3209 20.9626L41.1107 29.2043L36.4252 24.4922L39.9664 20.9626C40.2482 20.6321 40.2292 20.1398 39.9226 19.8321C39.6165 19.5248 39.1261 19.5057 38.7969 19.7886L35.2476 23.3101L32.9087 20.9541L41.1107 12.7123C41.4323 12.3876 41.4323 11.8632 41.1107 11.5384C40.7872 11.2156 40.2648 11.2156 39.9413 11.5384L31.1424 20.3715C30.9852 20.5276 30.897 20.7406 30.897 20.9626C30.897 21.1845 30.9852 21.3971 31.1424 21.5536L32.3199 22.7272L31.1424 23.9097C29.7502 22.5109 27.57 22.2882 25.9259 23.3768L25.2793 22.7272C24.5022 21.9492 23.4493 21.5122 22.3515 21.5118C21.8328 21.5118 21.3181 21.6077 20.8338 21.7951L19.4157 20.3715L20.0045 19.7886C20.1616 19.6321 20.2499 19.4195 20.2499 19.1976C20.2499 18.9756 20.1616 18.7626 20.0045 18.6065L11.7697 10.3648C11.4445 10.0404 10.9189 10.0425 10.5962 10.3689C10.273 10.6953 10.2751 11.2225 10.6002 11.5469L18.2216 19.1976L17.6328 19.7801L13.4862 23.9011L10.5589 20.9541C10.403 20.7963 10.1912 20.7077 9.97014 20.7077C9.74905 20.7077 9.53686 20.7963 9.38136 20.9541C9.05943 21.2788 9.05943 21.8032 9.38136 22.128L12.3168 25.0751L11.1392 26.2487L10.0361 27.4726L2.4148 19.7886C2.2593 19.6309 2.04711 19.5423 1.82602 19.5423C1.60492 19.5423 1.39314 19.6309 1.23723 19.7886C0.915713 20.1134 0.915713 20.6378 1.23723 20.9626L9.44737 29.2043C9.60408 29.36 9.81586 29.447 10.0361 29.4458C10.2568 29.447 10.4686 29.36 10.6253 29.2043L11.7697 28.0303L12.9387 29.2043C11.3202 30.8299 11.3202 33.4644 12.9387 35.09L14.4982 36.6302C14.6537 36.7879 14.8658 36.8765 15.0869 36.8765C15.308 36.8765 15.5198 36.7879 15.6757 36.6302C15.9972 36.3054 15.9972 35.781 15.6757 35.4562L14.1414 33.9164C13.6729 33.4477 13.4097 32.8111 13.4097 32.1473C13.4097 31.4831 13.6729 30.8465 14.1414 30.3783L14.7221 29.7953L20.5933 23.9011C21.5789 22.9625 23.1242 22.9625 24.1098 23.9011L29.3841 29.1958C29.666 29.5262 29.6469 30.0185 29.3408 30.3262C29.0342 30.6335 28.5439 30.6526 28.2151 30.3697L24.3916 26.532C24.0644 26.2056 23.5352 26.2072 23.21 26.5361C22.8848 26.8649 22.8865 27.3958 23.2141 27.7222L27.0371 31.5603C27.7482 32.2794 28.8213 32.4965 29.7538 32.1095C30.6868 31.7225 31.2942 30.8083 31.2918 29.7953C31.291 29.1332 31.0286 28.4982 30.5617 28.0303L27.1452 24.6003C28.0976 24.167 29.2169 24.358 29.9729 25.0832L37.014 32.1514C37.4776 32.6205 37.7372 33.2554 37.7356 33.9164C37.7372 34.5774 37.4776 35.2119 37.014 35.681L34.6669 38.0371L32.262 40.4431L30.5617 42.1581L25.868 46.8698C25.5445 47.1926 25.0221 47.1926 24.6986 46.8698C24.377 46.5454 24.377 46.021 24.6986 45.6963L30.0146 40.3846C30.2511 40.1813 30.3543 39.8618 30.2815 39.5578C30.2086 39.2537 29.9721 39.0163 29.6692 38.9431C29.3659 38.87 29.048 38.9732 28.8451 39.211L23.5623 44.5056C23.2335 44.7885 22.7431 44.7694 22.4366 44.4621C22.1304 44.1544 22.1114 43.6621 22.3933 43.3317L27.6676 38.0371C27.8247 37.881 27.913 37.668 27.913 37.446C27.913 37.2241 27.8247 37.0115 27.6676 36.855C27.344 36.5322 26.8217 36.5322 26.4981 36.855L21.2153 42.1581C20.8921 42.4809 20.3698 42.4809 20.0462 42.1581C19.8891 42.0016 19.8008 41.789 19.8008 41.5671C19.8008 41.3451 19.8891 41.1321 20.0462 40.976L25.3206 35.681C25.4777 35.5249 25.5659 35.3119 25.5659 35.09C25.5659 34.868 25.4777 34.6554 25.3206 34.4989C24.997 34.1761 24.4746 34.1761 24.1511 34.4989L18.8687 39.8021C18.5435 40.126 18.0179 40.1244 17.6952 39.798C17.372 39.4716 17.374 38.9439 17.6992 38.62L24.0766 32.2262C24.4018 31.8998 24.4018 31.3705 24.0766 31.0441C23.7514 30.7177 23.2242 30.7177 22.899 31.0441L16.4884 37.4627C15.5182 38.4379 15.5182 40.0175 16.4884 40.9927C16.9169 41.4317 17.4939 41.6935 18.1054 41.7252C18.1795 42.9926 19.1894 44.0028 20.4524 44.0727C20.5224 45.3438 21.5336 46.3584 22.7994 46.4288C22.8233 47.0548 23.0808 47.6495 23.521 48.0938C24.2685 48.8425 25.4056 49.0364 26.3572 48.5767L27.0371 49.2677C27.7356 49.9693 28.782 50.1897 29.7028 49.8287C30.6232 49.4677 31.2436 48.5942 31.2833 47.6027C31.9081 47.5836 32.5021 47.3243 32.9419 46.8783C33.3728 46.4442 33.6295 45.8666 33.6635 45.2548C34.9297 45.1849 35.9405 44.1699 36.0105 42.8987C36.9982 42.8593 37.8684 42.2362 38.228 41.3122C38.588 40.3878 38.3685 39.3378 37.6692 38.6366L37.0804 38.0537L38.2579 36.8716C39.033 36.0916 39.4683 35.0347 39.4687 33.9327C39.4493 33.1087 39.1865 32.3091 38.7139 31.6351L39.9664 30.3783L40.5552 30.9693C40.8787 31.2921 41.4011 31.2921 41.7246 30.9693L50.4984 22.1361C50.8199 21.8118 50.8199 21.287 50.4984 20.9626C50.3429 20.8049 50.1307 20.7163 49.9096 20.7163C49.6885 20.7163 49.4768 20.8049 49.3209 20.9626ZM12.9639 26.8482L18.2467 21.5536L19.4157 22.7272L14.1414 28.0303L12.9639 26.8482ZM29.3841 48.0438C29.0606 48.3665 28.5382 48.3665 28.2151 48.0438L27.6263 47.4527L28.8038 46.2788L29.3841 46.8617C29.5412 47.0178 29.6295 47.2308 29.6295 47.4527C29.6295 47.6747 29.5412 47.8877 29.3841 48.0438ZM31.7311 45.6877C31.4076 46.0105 30.8852 46.0105 30.5617 45.6877L30.0146 45.0967L30.6034 44.5056L31.1837 43.9227L31.7728 44.5056C31.9296 44.6621 32.0178 44.8747 32.0178 45.0967C32.0178 45.3186 31.9296 45.5316 31.7728 45.6877H31.7311ZM34.0782 43.3317C33.7546 43.6544 33.2322 43.6544 32.9087 43.3317L32.3199 42.7406L33.4894 41.5671L34.0782 42.1581C34.3997 42.4829 34.3997 43.0073 34.0782 43.3317ZM36.4252 40.976C36.2693 41.1333 36.0575 41.2219 35.8364 41.2219C35.6153 41.2219 35.4031 41.1333 35.2476 40.976L34.6669 40.3846L35.8198 39.211L36.4086 39.8021C36.7346 40.122 36.7423 40.6468 36.4252 40.976ZM37.5942 30.3783L32.3199 25.0832L33.4894 23.9097L38.7722 29.2043L37.5942 30.3783Z" fill="#FFBB01"/>
<path d="M16.7457 13.3201H34.9906C35.4486 13.3201 35.8199 12.9473 35.8199 12.4876V0.832504C35.8199 0.372757 35.4486 0 34.9906 0L16.7457 0C16.2877 0 15.9164 0.372757 15.9164 0.832504V12.4876C15.9164 12.9473 16.2877 13.3201 16.7457 13.3201ZM17.575 9.99005C18.491 9.99005 19.2336 10.7356 19.2336 11.6551H17.575V9.99005ZM34.1613 11.6551H32.5027C32.5027 10.7356 33.2453 9.99005 34.1613 9.99005V11.6551ZM34.1613 3.33002C33.2453 3.33002 32.5027 2.5845 32.5027 1.66501H34.1613V3.33002ZM34.1613 4.99502V8.32504C32.329 8.32504 30.844 9.81607 30.844 11.6551H20.8923C20.8923 9.81607 19.407 8.32504 17.575 8.32504V4.99502C19.407 4.99502 20.8923 3.504 20.8923 1.66501L30.844 1.66501C30.844 3.504 32.329 4.99502 34.1613 4.99502ZM17.575 1.66501H19.2336C19.2336 2.5845 18.491 3.33002 17.575 3.33002V1.66501Z" fill="#FFBB01"/>
<path d="M25.8679 9.99005C27.6999 9.99005 29.1852 8.49902 29.1852 6.66003C29.1852 4.82104 27.6999 3.33002 25.8679 3.33002C24.0356 3.33002 22.5507 4.82104 22.5507 6.66003C22.5507 8.49902 24.0356 9.99005 25.8679 9.99005ZM25.8679 4.99503C26.7839 4.99503 27.5265 5.74054 27.5265 6.66003C27.5265 7.57953 26.7839 8.32504 25.8679 8.32504C24.9519 8.32504 24.2093 7.57953 24.2093 6.66003C24.2093 5.74054 24.9519 4.99503 25.8679 4.99503Z" fill="#FFBB01"/>
<path d="M32.5024 6.66002C32.5024 7.11977 32.1311 7.49252 31.6731 7.49252C31.2151 7.49252 30.8438 7.11977 30.8438 6.66002C30.8438 6.20027 31.2151 5.82751 31.6731 5.82751C32.1311 5.82751 32.5024 6.20027 32.5024 6.66002Z" fill="#FFBB01"/>
<path d="M20.8921 6.66002C20.8921 7.11977 20.5208 7.49252 20.0628 7.49252C19.6048 7.49252 19.2335 7.11977 19.2335 6.66002C19.2335 6.20027 19.6048 5.82751 20.0628 5.82751C20.5208 5.82751 20.8921 6.20027 20.8921 6.66002Z" fill="#FFBB01"/>
<path d="M50.6066 5.36978L47.2893 0.374755C47.135 0.144272 46.8771 0.00646973 46.6009 0.00646973C46.3248 0.00646973 46.0664 0.144272 45.9125 0.374755L42.5953 5.36978C42.5046 5.50514 42.4556 5.66449 42.4543 5.82749V9.15751C42.4543 9.61726 42.8257 9.99001 43.2837 9.99001C43.7416 9.99001 44.113 9.61726 44.113 9.15751V6.07708L46.6009 2.33081L49.0889 6.07708V14.985C49.0889 15.4448 49.4602 15.8175 49.9182 15.8175C50.3762 15.8175 50.7475 15.4448 50.7475 14.985V5.82749C50.7463 5.66449 50.6973 5.50514 50.6066 5.36978Z" fill="#FFBB01"/>
<path d="M47.4303 11.655V6.66002C47.4303 6.20027 47.059 5.82751 46.601 5.82751C46.143 5.82751 45.7717 6.20027 45.7717 6.66002V11.655C45.7717 12.1148 46.143 12.4875 46.601 12.4875C47.059 12.4875 47.4303 12.1148 47.4303 11.655Z" fill="#FFBB01"/>
<path d="M1.81787 7.49256H2.64719L2.64719 17.4826C2.64719 17.9424 3.01851 18.3151 3.4765 18.3151C3.93449 18.3151 4.30581 17.9424 4.30581 17.4826V6.66006C4.30581 6.20031 3.93449 5.82755 3.4765 5.82755H3.42669L5.96444 2.26462L8.50219 5.82755H8.45239C7.9944 5.82755 7.62307 6.20031 7.62307 6.66006V8.32507C7.62307 8.78481 7.9944 9.15757 8.45239 9.15757C8.91037 9.15757 9.2817 8.78481 9.2817 8.32507V7.49256H10.111C10.4208 7.49094 10.7038 7.31655 10.8452 7.03972C10.9865 6.76331 10.9622 6.43039 10.7828 6.17714L6.63624 0.349612C6.47993 0.133356 6.23049 0.00531006 5.96444 0.00531006C5.6984 0.00531006 5.44855 0.133356 5.29265 0.349612L1.14608 6.17714C0.966285 6.43039 0.942393 6.76331 1.08372 7.03972C1.22504 7.31655 1.50809 7.49094 1.81787 7.49256Z" fill="#FFBB01"/>
<path d="M5.96442 11.6551V14.1526C5.96442 14.6123 6.33575 14.9851 6.79373 14.9851C7.25172 14.9851 7.62305 14.6123 7.62305 14.1526V11.6551C7.62305 11.1953 7.25172 10.8226 6.79373 10.8226C6.33575 10.8226 5.96442 11.1953 5.96442 11.6551Z" fill="#FFBB01"/>
</svg>
