<svg width="50" height="50" viewBox="0 0 50 50" fill="none" xmlns="http://www.w3.org/2000/svg">
<path d="M42.9417 36.7029L40.0034 39.6525L38.2437 37.8779C37.9182 37.5512 37.3906 37.5512 37.0651 37.8779C36.7397 38.2046 36.7397 38.7343 37.0651 39.061L39.4141 41.419C39.5698 41.5769 39.7821 41.6656 40.0034 41.6656C40.2247 41.6656 40.4367 41.5769 40.5927 41.419L44.1535 37.8779C44.3902 37.6745 44.4936 37.3547 44.4206 37.0504C44.3477 36.7456 44.111 36.508 43.8078 36.4348C43.5047 36.3616 43.1861 36.4653 42.9831 36.7029H42.9417Z" fill="#FFBB01"/>
<path d="M44.1535 30.9123V28.3293C44.1535 27.8692 43.7819 27.4961 43.3235 27.4961H40.8334V26.6629C40.8334 25.2825 41.9484 24.1632 43.3235 24.1632C43.7819 24.1632 44.1535 23.7902 44.1535 23.33C44.1535 22.8699 43.7819 22.4968 43.3235 22.4968C41.0316 22.4968 39.1734 24.3622 39.1734 26.6629V27.4961H36.6833C36.225 27.4961 35.8533 27.8692 35.8533 28.3293V30.9123C31.5966 32.8709 29.2739 37.5414 30.2722 42.1334C31.2708 46.7259 35.3208 50.0001 40.0034 50.0001C44.6856 50.0001 48.736 46.7259 49.7347 42.1334C50.7329 37.5414 48.4102 32.8709 44.1535 30.9123ZM40.8334 48.3264V47.4932C40.8334 47.033 40.4618 46.66 40.0034 46.66C39.545 46.66 39.1734 47.033 39.1734 47.4932V48.3264C35.2154 47.9456 32.0826 44.8007 31.7032 40.8275H32.5332C32.9916 40.8275 33.3633 40.4544 33.3633 39.9943C33.3633 39.5341 32.9916 39.1611 32.5332 39.1611H31.7032C32.0161 36.0491 34.0385 33.3754 36.9407 32.237C37.26 32.1133 37.4708 31.8058 37.472 31.462V29.1625H42.4521V31.462C42.4529 31.8058 42.6637 32.1133 42.9831 32.237C45.9177 33.3505 47.9761 36.0292 48.3036 39.1611H47.4736C47.0152 39.1611 46.6436 39.5341 46.6436 39.9943C46.6436 40.4544 47.0152 40.8275 47.4736 40.8275H48.3036C47.9243 44.8007 44.7914 47.9456 40.8334 48.3264Z" fill="#FFBB01"/>
<path d="M27.7273 43.3271C27.553 43.3271 5.14247 43.3271 5.14247 43.3271C3.76734 43.3271 2.65241 42.2079 2.65241 40.8275L2.65241 14.1647L45.8134 14.1647V29.5457C45.8134 30.0059 46.1851 30.379 46.6435 30.379C47.1018 30.379 47.4735 30.0059 47.4735 29.5457V8.33218C47.4735 6.03149 45.6153 4.16612 43.3234 4.16612H41.6633V3.33291C41.6633 2.87277 41.2917 2.4997 40.8333 2.4997C40.375 2.4997 40.0033 2.87277 40.0033 3.33291V6.66576C40.0033 7.58604 39.26 8.33218 38.3433 8.33218C37.4265 8.33218 36.6832 7.58604 36.6832 6.66576V3.33291C36.6832 2.41263 37.4265 1.66649 38.3433 1.66649C38.8016 1.66649 39.1733 1.29341 39.1733 0.833273C39.1733 0.373135 38.8016 6.10352e-05 38.3433 6.10352e-05C36.5098 6.10352e-05 35.0232 1.49236 35.0232 3.33291V4.16612H27.553V3.33291C27.553 2.87277 27.1814 2.4997 26.723 2.4997C26.2646 2.4997 25.893 2.87277 25.893 3.33291V6.66576C25.893 7.58604 25.1497 8.33218 24.2329 8.33218C23.3162 8.33218 22.5729 7.58604 22.5729 6.66576V3.33291C22.5729 2.41263 23.3162 1.66649 24.2329 1.66649C24.6913 1.66649 25.063 1.29341 25.063 0.833273C25.063 0.373135 24.6913 6.10352e-05 24.2329 6.10352e-05C22.3994 6.10352e-05 20.9128 1.49236 20.9128 3.33291V4.16612L13.4427 4.16612V3.33291C13.4427 2.87277 13.071 2.4997 12.6126 2.4997C12.1543 2.4997 11.7826 2.87277 11.7826 3.33291V6.66576C11.7826 7.58604 11.0393 8.33218 10.1226 8.33218C9.20584 8.33218 8.46255 7.58604 8.46255 6.66576V3.33291C8.46255 2.41263 9.20584 1.66649 10.1226 1.66649C10.581 1.66649 10.9526 1.29341 10.9526 0.833273C10.9526 0.373135 10.581 6.10352e-05 10.1226 6.10352e-05C8.28909 6.10352e-05 6.80251 1.49236 6.80251 3.33291V4.16612H5.14247C2.85059 4.16612 0.992371 6.03149 0.992371 8.33218L0.992371 40.8275C0.992371 43.1282 2.85059 44.9935 5.14247 44.9935H24.2329C28.5905 44.9935 28.5905 44.9935 28.5905 44.1603C28.5917 43.939 28.505 43.7258 28.3498 43.5688C28.1853 43.4044 27.9595 43.3165 27.7273 43.3271ZM5.14247 5.83255H6.80251V6.66576C6.80251 8.50631 8.28909 9.99861 10.1226 9.99861C11.9561 9.99861 13.4427 8.50631 13.4427 6.66576V5.83255L20.9128 5.83255V6.66576C20.9128 8.50631 22.3994 9.99861 24.2329 9.99861C26.0664 9.99861 27.553 8.50631 27.553 6.66576V5.83255H35.0232V6.66576C35.0232 8.50631 36.5098 9.99861 38.3433 9.99861C40.1768 9.99861 41.6633 8.50631 41.6633 6.66576V5.83255H43.3234C44.6985 5.83255 45.8134 6.95177 45.8134 8.33218V12.4982L2.65241 12.4982L2.65241 8.33218C2.65241 6.95177 3.76734 5.83255 5.14247 5.83255Z" fill="#FFBB01"/>
<path d="M15.9328 17.4975C15.9328 17.0374 15.5612 16.6643 15.1028 16.6643H8.46265C8.00427 16.6643 7.63263 17.0374 7.63263 17.4975V24.1632C7.63263 24.6234 8.00427 24.9964 8.46265 24.9964H15.1028C15.5612 24.9964 15.9328 24.6234 15.9328 24.1632V17.4975ZM14.2728 23.33H9.29267V18.3307H14.2728V23.33Z" fill="#FFBB01"/>
<path d="M15.1028 29.9957C15.5612 29.9957 15.9328 29.6226 15.9328 29.1625C15.9328 28.7024 15.5612 28.3293 15.1028 28.3293H8.46265C8.00427 28.3293 7.63263 28.7024 7.63263 29.1625V35.8282C7.63263 36.2883 8.00427 36.6614 8.46265 36.6614H15.1028C15.5612 36.6614 15.9328 36.2883 15.9328 35.8282V32.4953C15.9328 32.0352 15.5612 31.6621 15.1028 31.6621C14.6444 31.6621 14.2728 32.0352 14.2728 32.4953V34.995H9.29267V29.9957H15.1028Z" fill="#FFBB01"/>
<path d="M20.083 28.3293C19.6246 28.3293 19.253 28.7024 19.253 29.1625V35.8282C19.253 36.2883 19.6246 36.6614 20.083 36.6614H26.7232C27.1815 36.6614 27.5532 36.2883 27.5532 35.8282V29.1625C27.5532 28.7024 27.1815 28.3293 26.7232 28.3293H20.083ZM25.8931 34.995H20.913V29.9957H25.8931V34.995Z" fill="#FFBB01"/>
<path d="M38.3433 23.33C38.8017 23.33 39.1734 22.9569 39.1734 22.4968V17.4975C39.1734 17.0374 38.8017 16.6643 38.3433 16.6643H31.7032C31.2448 16.6643 30.8732 17.0374 30.8732 17.4975V24.1632C30.8732 24.6234 31.2448 24.9964 31.7032 24.9964C32.1616 24.9964 32.5332 24.6234 32.5332 24.1632V18.3307H37.5133V22.4968C37.5133 22.9569 37.885 23.33 38.3433 23.33Z" fill="#FFBB01"/>
<path d="M27.3124 16.906C27.1564 16.7481 26.9444 16.6594 26.7231 16.6594C26.5019 16.6594 26.2895 16.7481 26.1339 16.906L23.4031 19.6554L20.6723 16.906C20.3468 16.5793 19.8192 16.5793 19.4937 16.906C19.1683 17.2327 19.1683 17.7624 19.4937 18.0891L22.2326 20.8304L19.4937 23.5717C19.3365 23.7279 19.2481 23.9411 19.2481 24.1632C19.2481 24.3854 19.3365 24.5985 19.4937 24.7548C19.6493 24.9126 19.8617 25.0013 20.083 25.0013C20.3043 25.0013 20.5162 24.9126 20.6723 24.7548L23.4031 22.0053L26.1339 24.7548C26.2895 24.9126 26.5019 25.0013 26.7231 25.0013C26.9444 25.0013 27.1564 24.9126 27.3124 24.7548C27.4697 24.5985 27.558 24.3854 27.558 24.1632C27.558 23.9411 27.4697 23.7279 27.3124 23.5717L24.5735 20.8304L27.3124 18.0891C27.4697 17.9328 27.558 17.7197 27.558 17.4975C27.558 17.2754 27.4697 17.0622 27.3124 16.906Z" fill="#FFBB01"/>
</svg>
