<svg width="18" height="18" viewBox="0 0 18 18" fill="none" xmlns="http://www.w3.org/2000/svg">
<path d="M2.89752 17.6482H8.59749V11.5917H6.5496V9.59503H8.59749V7.09922C8.59749 5.72301 9.74584 4.60341 11.1574 4.60341H13.7172V6.60006H11.6693C11.1047 6.60006 10.6454 7.04788 10.6454 7.59838V9.59503H13.6248L13.2835 11.5917H10.6454V17.6482H15.2532C16.6647 17.6482 17.813 16.5286 17.813 15.1524V3.10592C17.813 1.72971 16.6647 0.610107 15.2532 0.610107H2.89752C1.48599 0.610107 0.337646 1.72971 0.337646 3.10592V15.1524C0.337646 16.5286 1.48599 17.6482 2.89752 17.6482ZM1.36159 3.10592C1.36159 2.28022 2.05063 1.60843 2.89752 1.60843H15.2532C16.1 1.60843 16.7891 2.28022 16.7891 3.10592V15.1524C16.7891 15.9781 16.1 16.6499 15.2532 16.6499H11.6693V12.59H14.1509L14.8336 8.59671H11.6693V7.59838H14.7412V3.60508H11.1574C9.1812 3.60508 7.57355 5.17251 7.57355 7.09922V8.59671H5.52565V12.59H7.57355V16.6499H2.89752C2.05063 16.6499 1.36159 15.9781 1.36159 15.1524V3.10592Z" fill="white"/>
</svg>
