<svg width="18" height="18" viewBox="0 0 18 18" fill="none" xmlns="http://www.w3.org/2000/svg">
<path d="M8.73769 0.90625C3.9354 0.90625 0 4.77645 0 9.45857C0 14.1135 3.89954 17.9443 8.73769 17.9443C13.5698 17.9443 17.4754 14.1192 17.4754 9.45857C17.4754 4.77645 13.54 0.90625 8.73769 0.90625ZM10.2736 16.7963C9.78217 16.8961 9.25993 16.946 8.73769 16.946C8.21545 16.946 7.69321 16.8961 7.20177 16.7963V14.4602C7.20177 13.9011 7.35536 13.7015 7.56015 13.4319C7.66441 13.3156 7.72734 13.2114 8.19492 12.5235L7.40656 12.4036C5.37906 12.1141 4.58043 11.0858 4.26298 10.2871C3.8534 9.219 4.06846 7.88114 4.80576 7.03269C4.91842 6.90283 5.01055 6.68315 4.92868 6.45358C4.77496 5.99433 4.79549 5.2656 4.89788 4.98599C5.44079 5.06165 5.99903 5.44083 6.46461 5.71485C6.67913 5.83691 6.79166 5.80467 6.89458 5.81468C7.2687 5.73877 7.85227 5.55509 8.74796 5.55509C9.30086 5.55509 9.88457 5.63491 10.458 5.79466C10.5605 5.79232 10.7253 5.87734 11.0109 5.71485C11.4976 5.42575 12.0369 5.05957 12.5775 4.98599C12.6799 5.2656 12.7004 5.99433 12.5468 6.45358C12.4648 6.68315 12.557 6.90283 12.6698 7.03269C13.4069 7.88127 13.622 9.219 13.2124 10.2871C12.8949 11.0858 12.0963 12.1141 10.0688 12.4036L9.28046 12.5235C9.76377 13.2345 9.8147 13.3198 9.91536 13.4319C10.12 13.7015 10.2736 13.9011 10.2736 14.4602V16.7963ZM11.2976 16.5068V14.4602C11.2976 13.8911 11.1746 13.5118 11.0108 13.2322C12.5672 12.823 13.6732 11.9244 14.1646 10.6365C14.6869 9.27892 14.4514 7.66158 13.5809 6.54341C13.7346 5.87461 13.7346 4.80635 13.366 4.30719C13.2021 4.08763 12.9768 3.96778 12.6902 3.96778C12.6799 3.96778 12.6799 3.96778 12.6799 3.96778C11.8859 4.00964 11.261 4.39948 10.5911 4.79634C9.97669 4.63658 9.35206 4.55677 8.72742 4.55677C8.09266 4.55677 7.45776 4.64659 6.89472 4.79634C6.18942 4.38167 5.57052 4.0086 4.75456 3.96778C4.49857 3.96778 4.27325 4.08763 4.10939 4.30719C3.74088 4.80635 3.74088 5.87461 3.89447 6.54341C3.02398 7.66158 2.78853 9.2888 3.31077 10.6365C3.80221 11.9244 4.90815 12.823 6.46461 13.2322C6.33754 13.4489 6.23702 13.7285 6.19742 14.1069C5.88303 14.2126 5.61038 14.247 5.35679 14.1744C5.08934 14.0973 4.88095 13.9232 4.69989 13.6263C4.29325 12.9602 3.60062 12.4165 2.81199 12.4872L2.90199 13.4816C3.26717 13.449 3.63062 13.8257 3.81941 14.1363C4.13086 14.6477 4.55044 14.983 5.06681 15.1317C5.45012 15.2418 5.80051 15.2392 6.17782 15.1607V16.5068C3.1981 15.4884 1.02395 12.7131 1.02395 9.45857C1.02395 5.32553 4.49857 1.90458 8.73769 1.90458C12.9768 1.90458 16.4514 5.32553 16.4514 9.45857C16.4514 12.7131 14.2773 15.4884 11.2976 16.5068Z" fill="white"/>
</svg>
