<svg width="19" height="18" viewBox="0 0 19 18" fill="none" xmlns="http://www.w3.org/2000/svg">
<path d="M3.45165 17.0802H15.8073C17.2188 17.0802 18.3672 15.9606 18.3672 14.5844V2.53793C18.3672 1.16172 17.2188 0.0421143 15.8073 0.0421143H3.45165C2.04013 0.0421143 0.891785 1.16172 0.891785 2.53793V14.5844C0.891785 15.9606 2.04013 17.0802 3.45165 17.0802ZM1.91573 2.53793C1.91573 1.71223 2.60476 1.04044 3.45165 1.04044H15.8073C16.6542 1.04044 17.3432 1.71223 17.3432 2.53793V14.5844C17.3432 15.4101 16.6542 16.0819 15.8073 16.0819H3.45165C2.60476 16.0819 1.91573 15.4101 1.91573 14.5844V2.53793Z" fill="white"/>
<path d="M9.62949 13.0537C12.1702 13.0537 14.2372 11.0383 14.2372 8.56119C14.2372 6.0841 12.1702 4.06873 9.62949 4.06873C7.08882 4.06873 5.02173 6.0841 5.02173 8.56119C5.02173 11.0383 7.08882 13.0537 9.62949 13.0537ZM9.62949 5.06705C11.6057 5.06705 13.2133 6.63447 13.2133 8.56119C13.2133 10.4879 11.6057 12.0553 9.62949 12.0553C7.65333 12.0553 6.04568 10.4879 6.04568 8.56119C6.04568 6.63447 7.65333 5.06705 9.62949 5.06705Z" fill="white"/>
<path d="M14.4583 4.82473C15.2951 4.82473 15.9759 4.16096 15.9759 3.34511C15.9759 2.52926 15.2951 1.86548 14.4583 1.86548C13.6215 1.86548 12.9407 2.52926 12.9407 3.34511C12.9407 4.16096 13.6215 4.82473 14.4583 4.82473ZM14.4583 2.8519C14.7372 2.8519 14.9642 3.0732 14.9642 3.34511C14.9642 3.61701 14.7372 3.83831 14.4583 3.83831C14.1795 3.83831 13.9525 3.61701 13.9525 3.34511C13.9525 3.0732 14.1795 2.8519 14.4583 2.8519Z" fill="white"/>
</svg>
