<svg width="51" height="50" viewBox="0 0 51 50" fill="none" xmlns="http://www.w3.org/2000/svg">
<path d="M50.7092 11.8565C50.5378 11.2166 50.1195 10.671 49.5473 10.3403C48.9746 10.0079 48.2938 9.91797 47.6551 10.0901C47.0172 10.2626 46.4737 10.682 46.1442 11.2564L45.7292 11.9814C45.3349 11.754 44.8311 11.8878 44.6005 12.2817L42.4923 15.889L41.7701 15.4724C41.5788 15.3614 41.3511 15.3313 41.1379 15.389C40.9243 15.4472 40.7427 15.588 40.6329 15.7808C40.408 16.1791 40.545 16.6852 40.9401 16.9138L41.6623 17.3304L34.6073 29.6033L32.8642 34.2778L32.0342 35.8356C31.5483 36.6842 31.6002 37.7392 32.1672 38.5353L30.2997 40.8347L29.7769 39.5186C29.541 38.932 28.9951 38.53 28.3673 38.4808C27.7391 38.4312 27.1373 38.7428 26.8135 39.2851L26.5148 39.7933L26.2327 36.4605C26.1679 35.672 25.5596 35.0382 24.7774 34.943C23.9948 34.8482 23.254 35.3189 23.0039 36.0691L20.9622 42.218C20.8195 42.6529 21.053 43.1215 21.485 43.268C21.566 43.3058 21.6532 43.3286 21.7423 43.3343C22.099 43.3355 22.4167 43.1073 22.531 42.768L24.5642 36.6192L24.8548 40.0015C24.9148 40.7233 25.4315 41.3233 26.1343 41.4869C26.837 41.6504 27.5641 41.3396 27.9341 40.7184L28.2413 40.2098L28.756 41.5182C28.9744 42.0695 29.4684 42.4629 30.0533 42.5504C30.6381 42.6378 31.2249 42.4063 31.5945 41.9429L33.5285 39.4853C33.7425 39.5414 33.9629 39.5695 34.1842 39.5687C35.0738 39.5756 35.8997 39.1053 36.3504 38.3352L37.1804 36.9438L40.3427 33.0862L47.4723 20.6632L48.1945 21.0798C48.387 21.1905 48.5272 21.3731 48.5844 21.5883C48.6419 21.8019 48.6119 22.0298 48.5017 22.2214L45.1817 27.9955C45.0565 28.1851 45.0139 28.4178 45.0642 28.64C45.1144 28.8617 45.2526 29.0533 45.4471 29.1701C45.6384 29.2815 45.8662 29.3116 46.0794 29.2539C46.2929 29.1957 46.4745 29.0549 46.5843 28.8621L49.9043 23.0879C50.2354 22.5131 50.325 21.8296 50.1532 21.1884C49.9813 20.5481 49.5635 20.0025 48.9913 19.6718L48.2691 19.2552L50.3441 15.6474C50.5706 15.2515 50.4373 14.7462 50.0454 14.5144L50.4604 13.7894C50.8004 13.2056 50.8904 12.5083 50.7092 11.8565ZM47.5801 12.0896C47.6899 11.8968 47.8723 11.7556 48.0867 11.6983C48.2999 11.6454 48.5252 11.6751 48.7173 11.7817C48.9098 11.8919 49.05 12.075 49.1076 12.2898C49.1603 12.5038 49.1307 12.73 49.0245 12.9228L48.6095 13.6478L47.1651 12.8146L47.5801 12.0896ZM36.2673 35.3527L35.8523 35.111L34.6239 34.3942L35.8025 31.2282L38.4169 32.7445L36.2673 35.3527ZM33.7773 37.7603C33.4267 37.515 33.3189 37.0431 33.5285 36.6688L33.9435 35.9442L35.3875 36.7774L34.9725 37.4938C34.8561 37.6964 34.6608 37.8405 34.4334 37.8913C34.2061 37.9418 33.9682 37.8946 33.7773 37.7603ZM39.3632 31.3783L36.4914 29.712L43.1314 18.1636L46.0032 19.83L39.3632 31.3783ZM46.8332 18.3886L43.9614 16.7222L45.6214 13.8394L48.4932 15.5058L46.8332 18.3886Z" fill="#FFBB01"/>
<path d="M14.0896 37.3436L11.1517 40.285L9.39204 38.5186C9.06822 38.1955 8.54542 38.1955 8.22161 38.5186C8.06436 38.6752 7.97601 38.888 7.97601 39.1101C7.97601 39.3322 8.06436 39.5454 8.22161 39.7016L9.9813 41.4681C10.2926 41.7781 10.7132 41.9518 11.1517 41.9514C11.5927 41.9538 12.017 41.7801 12.3303 41.4681L15.26 38.5186C15.542 38.1878 15.523 37.6951 15.2166 37.3876C14.9098 37.0796 14.419 37.0605 14.0896 37.3436Z" fill="#FFBB01"/>
<path d="M4.31238 39.585C4.31238 43.4966 7.47108 46.6671 11.3674 46.6671C15.2637 46.6671 18.4224 43.4966 18.4224 39.585C18.4224 39.1248 18.0507 38.7518 17.5924 38.7518C17.134 38.7518 16.7624 39.1248 16.7624 39.585C16.7624 42.576 14.3469 45.0007 11.3674 45.0007C8.3878 45.0007 5.97238 42.576 5.97238 39.585C5.97238 36.5939 8.3878 34.1692 11.3674 34.1692C12.5354 34.166 13.6722 34.5463 14.6043 35.2526C14.9711 35.5288 15.4914 35.454 15.7662 35.0858C16.0414 34.7176 15.9672 34.1957 15.6004 33.9194C13.4626 32.31 10.6022 32.0512 8.21232 33.2506C5.82202 34.4503 4.31238 36.9027 4.31238 39.585Z" fill="#FFBB01"/>
<path d="M30.8723 6.67383C31.3306 6.67383 31.7023 6.30117 31.7023 5.84064C31.7023 5.38051 31.3306 5.00745 30.8723 5.00745L9.29228 5.00745C8.83392 5.00745 8.46228 5.38051 8.46228 5.84064V9.1734C8.46228 9.63394 8.83392 10.0066 9.29228 10.0066H30.8723C31.3306 10.0066 31.7023 9.63394 31.7023 9.1734C31.7023 8.71328 31.3306 8.34021 30.8723 8.34021H10.1223V6.67383L30.8723 6.67383Z" fill="#FFBB01"/>
<path d="M11.7823 11.673C11.324 11.673 10.9523 12.0461 10.9523 12.5062C10.9523 12.9668 11.324 13.3394 11.7823 13.3394H28.3823C28.8407 13.3394 29.2123 12.9668 29.2123 12.5062C29.2123 12.0461 28.8407 11.673 28.3823 11.673H11.7823Z" fill="#FFBB01"/>
<path d="M33.3624 17.5053H15.1024C14.644 17.5053 14.2724 17.8784 14.2724 18.3385C14.2724 18.799 14.644 19.1717 15.1024 19.1717H33.3624C33.8207 19.1717 34.1924 18.799 34.1924 18.3385C34.1924 17.8784 33.8207 17.5053 33.3624 17.5053Z" fill="#FFBB01"/>
<path d="M25.0623 23.3377C25.0623 22.8776 24.6907 22.5045 24.2323 22.5045H7.63231C7.17394 22.5045 6.80231 22.8776 6.80231 23.3377C6.80231 23.7982 7.17394 24.1709 7.63231 24.1709H24.2323C24.6907 24.1709 25.0623 23.7982 25.0623 23.3377Z" fill="#FFBB01"/>
<path d="M33.3623 22.5045H27.5523C27.0939 22.5045 26.7223 22.8776 26.7223 23.3377C26.7223 23.7982 27.0939 24.1709 27.5523 24.1709H33.3623C33.8206 24.1709 34.1923 23.7982 34.1923 23.3377C34.1923 22.8776 33.8206 22.5045 33.3623 22.5045Z" fill="#FFBB01"/>
<path d="M15.9323 28.3368C16.3907 28.3368 16.7623 27.9642 16.7623 27.5037C16.7623 27.0435 16.3907 26.6705 15.9323 26.6705H7.63231C7.17394 26.6705 6.80231 27.0435 6.80231 27.5037C6.80231 27.9642 7.17394 28.3368 7.63231 28.3368H15.9323Z" fill="#FFBB01"/>
<path d="M19.2522 28.3368H25.0622C25.5206 28.3368 25.8922 27.9642 25.8922 27.5037C25.8922 27.0435 25.5206 26.6705 25.0622 26.6705H19.2522C18.7939 26.6705 18.4222 27.0435 18.4222 27.5037C18.4222 27.9642 18.7939 28.3368 19.2522 28.3368Z" fill="#FFBB01"/>
<path d="M38.3423 38.3352C37.8839 38.3352 37.5123 38.7082 37.5123 39.1684V47.5003C37.5123 47.9608 37.1406 48.3335 36.6823 48.3335H3.48231C3.02394 48.3335 2.65231 47.9608 2.65231 47.5003L2.65231 2.50794C2.65231 2.04781 3.02394 1.67474 3.48231 1.67474L36.6823 1.67474C37.1406 1.67474 37.5123 2.04781 37.5123 2.50794V18.1555C37.5123 18.6156 37.8839 18.9887 38.3423 18.9887C38.8006 18.9887 39.1723 18.6156 39.1723 18.1555V2.50794C39.1723 1.12756 38.0574 0.00836182 36.6823 0.00836182L3.48231 0.00836182C2.10722 0.00836182 0.99231 1.12756 0.99231 2.50794L0.99231 47.5003C0.99231 48.8811 2.10722 49.9998 3.48231 49.9998H36.6823C38.0574 49.9998 39.1723 48.8811 39.1723 47.5003V39.1684C39.1723 38.7082 38.8006 38.3352 38.3423 38.3352Z" fill="#FFBB01"/>
</svg>
