<svg width="16" height="16" viewBox="0 0 16 16" fill="none" xmlns="http://www.w3.org/2000/svg">
<path d="M12.6383 9.85907C12.3264 9.53432 11.9502 9.36069 11.5515 9.36069C11.156 9.36069 10.7766 9.5311 10.4518 9.85585L9.4358 10.8687C9.3522 10.8237 9.2686 10.7819 9.18822 10.7401C9.07246 10.6822 8.96314 10.6275 8.8699 10.5697C7.91817 9.96517 7.05324 9.17742 6.22369 8.15816C5.82178 7.65014 5.55169 7.2225 5.35556 6.78843C5.61921 6.54729 5.86358 6.29649 6.10151 6.05534C6.19154 5.96531 6.28157 5.87207 6.3716 5.78204C7.04681 5.10682 7.04681 4.23226 6.3716 3.55704L5.49381 2.67926C5.39414 2.57958 5.29125 2.47669 5.19479 2.3738C5.00187 2.17445 4.79931 1.96867 4.59031 1.77575C4.27842 1.46708 3.90545 1.3031 3.51318 1.3031C3.12091 1.3031 2.7415 1.46708 2.41997 1.77575C2.41675 1.77897 2.41675 1.77897 2.41354 1.78218L1.32033 2.88504C0.908769 3.2966 0.674051 3.79819 0.622606 4.38016C0.545438 5.31903 0.821955 6.1936 1.03417 6.76593C1.55505 8.17102 2.33316 9.47323 3.49389 10.8687C4.9022 12.5503 6.59667 13.8782 8.53229 14.8139C9.27181 15.1643 10.2589 15.5791 11.3618 15.6499C11.4293 15.6531 11.5 15.6563 11.5643 15.6563C12.3071 15.6563 12.9308 15.3894 13.4196 14.8589C13.4228 14.8525 13.4292 14.8492 13.4324 14.8428C13.5996 14.6402 13.7926 14.457 13.9951 14.2608C14.1334 14.129 14.2749 13.9908 14.4131 13.8461C14.7314 13.5149 14.8986 13.129 14.8986 12.7336C14.8986 12.3349 14.7282 11.9522 14.4035 11.6307L12.6383 9.85907ZM13.7893 13.2448C13.7861 13.2448 13.7861 13.248 13.7893 13.2448C13.6639 13.3798 13.5353 13.502 13.3971 13.6371C13.1881 13.8364 12.9759 14.0454 12.7765 14.2801C12.4518 14.6274 12.0691 14.7914 11.5676 14.7914C11.5193 14.7914 11.4679 14.7914 11.4196 14.7881C10.4647 14.7271 9.57727 14.3541 8.9117 14.0358C7.09183 13.1548 5.49381 11.904 4.16589 10.3189C3.06946 8.99736 2.33637 7.77554 1.85086 6.46369C1.55183 5.66307 1.44251 5.0393 1.49074 4.4509C1.52289 4.07471 1.66758 3.76282 1.93446 3.49595L3.03088 2.39952C3.18843 2.25162 3.35563 2.17124 3.51961 2.17124C3.72217 2.17124 3.88615 2.29342 3.98904 2.39631C3.99226 2.39952 3.99548 2.40274 3.99869 2.40596C4.19483 2.58923 4.38131 2.77893 4.57745 2.9815C4.67712 3.08439 4.78001 3.18728 4.8829 3.29338L5.76069 4.17117C6.10151 4.51199 6.10151 4.82709 5.76069 5.16791C5.66744 5.26116 5.57741 5.3544 5.48417 5.44443C5.21408 5.72095 4.95686 5.97817 4.67712 6.22897C4.67069 6.2354 4.66426 6.23862 4.66105 6.24505C4.38453 6.52156 4.43597 6.79165 4.49385 6.97492C4.49707 6.98457 4.50028 6.99422 4.5035 7.00386C4.73178 7.5569 5.05332 8.07778 5.54204 8.69834L5.54526 8.70155C6.43269 9.79476 7.36835 10.6468 8.40046 11.2995C8.53229 11.3831 8.66733 11.4506 8.79595 11.515C8.9117 11.5728 9.02102 11.6275 9.11426 11.6854C9.12712 11.6918 9.13999 11.7014 9.15285 11.7079C9.26217 11.7625 9.36506 11.7883 9.47116 11.7883C9.73804 11.7883 9.90523 11.6211 9.95989 11.5664L11.0595 10.4668C11.1689 10.3574 11.3425 10.2256 11.545 10.2256C11.7444 10.2256 11.9084 10.351 12.0081 10.4603C12.0113 10.4635 12.0113 10.4635 12.0145 10.4668L13.7861 12.2384C14.1173 12.5664 14.1173 12.904 13.7893 13.2448Z" fill="#949494"/>
<path d="M8.83129 4.04566C9.67371 4.18713 10.439 4.58583 11.0499 5.19674C11.6608 5.80765 12.0563 6.5729 12.201 7.41531C12.2363 7.62752 12.4196 7.77543 12.6286 7.77543C12.6543 7.77543 12.6768 7.77221 12.7025 7.769C12.9405 7.73041 13.098 7.50534 13.0595 7.26741C12.8858 6.24815 12.4035 5.31892 11.6672 4.58261C10.9309 3.84631 10.0017 3.36401 8.98241 3.19038C8.74448 3.1518 8.52262 3.30935 8.48082 3.54407C8.43902 3.77878 8.59336 4.00707 8.83129 4.04566Z" fill="#949494"/>
<path d="M15.815 7.14208C15.5288 5.46368 14.7379 3.93641 13.5225 2.72101C12.3071 1.50562 10.7798 0.714656 9.10141 0.428493C8.86669 0.386693 8.64484 0.547459 8.60304 0.782178C8.56445 1.02011 8.722 1.24197 8.95994 1.28377C10.4583 1.53778 11.8248 2.24836 12.9116 3.33193C13.9983 4.4187 14.7057 5.78521 14.9597 7.28355C14.9951 7.49576 15.1784 7.64367 15.3874 7.64367C15.4131 7.64367 15.4356 7.64045 15.4613 7.63724C15.696 7.60187 15.8568 7.3768 15.815 7.14208Z" fill="#949494"/>
</svg>
