<svg width="51" height="50" viewBox="0 0 51 50" fill="none" xmlns="http://www.w3.org/2000/svg">
<path d="M49.1348 35.6294V33.3295H49.9649C50.1939 33.3311 50.4131 33.2375 50.5708 33.0711C50.7118 32.9129 50.7917 32.7086 50.7949 32.4963L49.3091 4.16621C49.1677 1.87319 47.2733 0.0858765 44.9846 0.0858765C42.6959 0.0858765 40.8016 1.87319 40.6601 4.16621L39.1743 32.4963C39.1674 32.7233 39.2477 32.9438 39.3984 33.113C39.563 33.264 39.7814 33.3421 40.0043 33.3295H40.8344V35.6294L39.2655 38.7874C39.1471 39.023 39.1471 39.3013 39.2655 39.5373L44.2458 49.5361C44.2863 49.6281 44.3459 49.7102 44.42 49.7778C44.5169 49.8677 44.6336 49.9336 44.7605 49.9694H45.2168C45.3441 49.9336 45.4608 49.8677 45.5573 49.7778C45.6319 49.7102 45.691 49.6281 45.7316 49.5361L50.7118 39.5373C50.8302 39.3013 50.8302 39.023 50.7118 38.7874L49.1348 35.6294ZM40.8757 31.663L41.2247 24.9971H48.7445L49.1348 31.663H40.8757ZM42.3202 4.20812C42.3202 2.73083 43.513 1.53306 44.9846 1.53306C46.4562 1.53306 47.649 2.73083 47.649 4.20812L48.6533 23.3726H41.3159L41.4071 21.7061H46.0303C46.4891 21.7061 46.8603 21.333 46.8603 20.8729C46.8603 20.4123 46.4891 20.0396 46.0303 20.0396H41.4902L42.3202 4.20812ZM47.4747 33.3295V34.996H42.4945V33.3295H47.4747ZM45.8146 45.6283V39.9954H46.6447C47.1031 39.9954 47.4747 39.6223 47.4747 39.1621C47.4747 38.702 47.1031 38.3289 46.6447 38.3289H43.3245C42.8661 38.3289 42.4945 38.702 42.4945 39.1621C42.4945 39.6223 42.8661 39.9954 43.3245 39.9954H44.1546V45.6283L40.9341 39.1621L42.1792 36.6624H47.7901L49.0351 39.1621L45.8146 45.6283Z" fill="#FFBB01"/>
<path d="M29.2138 10.8321C29.6722 10.8321 30.0439 10.459 30.0439 9.99888C30.0439 9.53873 29.6722 9.16565 29.2138 9.16565H7.63272C7.17433 9.16565 6.80267 9.53873 6.80267 9.99888V13.3318C6.80267 13.792 7.17433 14.1651 7.63272 14.1651H29.2138C29.6722 14.1651 30.0439 13.792 30.0439 13.3318C30.0439 12.8717 29.6722 12.4986 29.2138 12.4986H8.46276V10.8321H29.2138Z" fill="#FFBB01"/>
<path d="M30.0439 18.3312C30.0439 17.8711 29.6723 17.498 29.2139 17.498H10.9529C10.4945 17.498 10.1229 17.8711 10.1229 18.3312C10.1229 18.7914 10.4945 19.1645 10.9529 19.1645H29.2139C29.6723 19.1645 30.0439 18.7914 30.0439 18.3312Z" fill="#FFBB01"/>
<path d="M5.97266 22.4974C5.97266 22.9575 6.34431 23.3306 6.8027 23.3306H20.0834C20.5418 23.3306 20.9134 22.9575 20.9134 22.4974C20.9134 22.0372 20.5418 21.6641 20.0834 21.6641H6.8027C6.34431 21.6641 5.97266 22.0372 5.97266 22.4974Z" fill="#FFBB01"/>
<path d="M25.0637 21.6641C24.6053 21.6641 24.2336 22.0372 24.2336 22.4974C24.2336 22.9575 24.6053 23.3306 25.0637 23.3306H28.3839C28.8423 23.3306 29.2139 22.9575 29.2139 22.4974C29.2139 22.0372 28.8423 21.6641 28.3839 21.6641H25.0637Z" fill="#FFBB01"/>
<path d="M17.5933 26.6635C17.5933 26.2034 17.2216 25.8303 16.7632 25.8303H6.8027C6.34431 25.8303 5.97266 26.2034 5.97266 26.6635C5.97266 27.1237 6.34431 27.4968 6.8027 27.4968H16.7632C17.2216 27.4968 17.5933 27.1237 17.5933 26.6635Z" fill="#FFBB01"/>
<path d="M16.7632 30.8298C16.7632 30.3697 16.3916 29.9966 15.9332 29.9966H6.8027C6.34431 29.9966 5.97266 30.3697 5.97266 30.8298C5.97266 31.29 6.34431 31.6631 6.8027 31.6631H15.9332C16.3916 31.6631 16.7632 31.29 16.7632 30.8298Z" fill="#FFBB01"/>
<path d="M6.8027 34.1627C6.34431 34.1627 5.97266 34.5358 5.97266 34.996C5.97266 35.4561 6.34431 35.8292 6.8027 35.8292H12.613C13.0714 35.8292 13.4431 35.4561 13.4431 34.996C13.4431 34.5358 13.0714 34.1627 12.613 34.1627H6.8027Z" fill="#FFBB01"/>
<path d="M33.364 0L3.48244 0C2.10728 0 0.99231 1.11925 0.99231 2.49971L0.99231 40.8286C0.99231 42.209 2.10728 43.3283 3.48244 43.3283H17.5932C18.0516 43.3283 18.4232 42.9552 18.4232 42.4951C18.4232 42.0349 18.0516 41.6618 17.5932 41.6618H3.48244C3.02405 41.6618 2.6524 41.2887 2.6524 40.8286L2.6524 7.49913L34.1941 7.49913V40.8286C34.1941 41.2887 33.8224 41.6618 33.364 41.6618H30.8739C30.4155 41.6618 30.0439 42.0349 30.0439 42.4951C30.0439 42.9552 30.4155 43.3283 30.8739 43.3283H33.364C34.7392 43.3283 35.8542 42.209 35.8542 40.8286V2.49971C35.8542 1.11925 34.7392 0 33.364 0ZM2.6524 5.83266V2.49971C2.6524 2.03956 3.02405 1.66647 3.48244 1.66647L33.364 1.66647C33.8224 1.66647 34.1941 2.03956 34.1941 2.49971V5.83266L2.6524 5.83266Z" fill="#FFBB01"/>
<path d="M24.2335 30.8297C22.8584 30.8297 21.7434 31.949 21.7434 33.3294C21.7434 34.7099 22.8584 35.8291 24.2335 35.8291C25.6087 35.8291 26.7237 34.7099 26.7237 33.3294C26.7237 31.949 25.6087 30.8297 24.2335 30.8297ZM24.2335 34.1627C23.7751 34.1627 23.4035 33.7896 23.4035 33.3294C23.4035 32.8693 23.7751 32.4962 24.2335 32.4962C24.6919 32.4962 25.0636 32.8693 25.0636 33.3294C25.0636 33.7896 24.6919 34.1627 24.2335 34.1627Z" fill="#FFBB01"/>
<path d="M30.8739 33.3294C30.8727 32.4034 30.362 31.5535 29.5457 31.1214C29.8173 30.2361 29.579 29.2731 28.9269 28.6181C28.2743 27.9634 27.315 27.7242 26.4331 27.9968C26.001 27.1798 25.1552 26.6688 24.2335 26.6688C23.3119 26.6688 22.466 27.1798 22.034 27.9968C21.1521 27.7242 20.1927 27.9634 19.5402 28.6181C18.8881 29.2731 18.6498 30.2361 18.9213 31.1214C18.1071 31.5551 17.5984 32.4042 17.5984 33.3294C17.5984 34.2546 18.1071 35.1041 18.9213 35.5374C18.6498 36.4207 18.8861 37.3821 19.5354 38.0371C19.6975 38.1995 19.8819 38.337 20.0833 38.4456V49.1609C20.0849 49.4974 20.288 49.7997 20.598 49.9274C20.9069 50.058 21.2639 49.9889 21.5027 49.7525L24.2335 47.003L26.9644 49.7525C27.1209 49.9087 27.3332 49.9954 27.5537 49.9942C27.6627 49.997 27.7705 49.9742 27.869 49.9274C28.1791 49.7997 28.3821 49.4974 28.3838 49.1609V38.4538C28.5852 38.3451 28.7696 38.2076 28.9317 38.0457C29.581 37.3902 29.8173 36.4293 29.5457 35.546C30.3644 35.1123 30.8759 34.2587 30.8739 33.3294ZM24.8228 45.2364C24.6672 45.0786 24.4548 44.9899 24.2335 44.9899C24.0122 44.9899 23.7999 45.0786 23.6442 45.2364L21.7434 47.1527V38.7373L22.034 38.6621C22.466 39.4794 23.3119 39.99 24.2335 39.99C25.1552 39.99 26.001 39.4794 26.4331 38.6621L26.7237 38.7373V47.1527L24.8228 45.2364ZM28.3838 34.1627H28.2427C27.9047 34.161 27.5991 34.3653 27.4706 34.6794C27.343 34.9914 27.4151 35.3499 27.6534 35.5875L27.7531 35.6876C28.0749 36.0126 28.0749 36.5375 27.7531 36.8625C27.6615 36.959 27.5472 37.0306 27.4208 37.0709H27.2963C27.0349 37.1115 26.7699 37.0249 26.5826 36.8373L26.4829 36.7372C26.2454 36.4972 25.8867 36.4248 25.5755 36.5546C25.2638 36.6843 25.0616 36.9907 25.0636 37.3292V37.4956C25.0636 37.9558 24.6919 38.3289 24.2335 38.3289C23.7751 38.3289 23.4035 37.9558 23.4035 37.4956V37.354C23.4051 37.0147 23.2017 36.7079 22.8888 36.579C22.7887 36.5391 22.6813 36.5196 22.5734 36.5208C22.353 36.5196 22.1406 36.6066 21.9841 36.7625L21.8844 36.8625C21.6972 37.0501 21.4321 37.1368 21.1707 37.0957H21.0463C20.9198 37.0558 20.8055 36.9842 20.714 36.8874C20.3921 36.5623 20.3921 36.0375 20.714 35.7124L20.8222 35.6127C21.0605 35.3747 21.1326 35.0162 21.0045 34.7042C20.8761 34.3905 20.5709 34.1859 20.2329 34.1879H20.0833C19.6249 34.1879 19.2533 33.8148 19.2533 33.3547C19.2533 32.8941 19.6249 32.5214 20.0833 32.5214H20.2244C20.5624 32.523 20.868 32.3184 20.9964 32.0047C21.1241 31.6927 21.052 31.3342 20.8137 31.0962L20.714 30.9965C20.3885 30.6719 20.3869 30.1442 20.7099 29.8175C21.0333 29.4908 21.559 29.4887 21.8844 29.8134L21.9841 29.9216C22.2208 30.1609 22.5783 30.2333 22.8888 30.1047C23.2017 29.9757 23.4051 29.6694 23.4035 29.3301V29.1632C23.4035 28.7031 23.7751 28.33 24.2335 28.33C24.6919 28.33 25.0636 28.7031 25.0636 29.1632V29.3048C25.062 29.6446 25.2654 29.9509 25.5783 30.0799C25.8888 30.208 26.2462 30.136 26.4829 29.8964L26.5826 29.7967C26.9056 29.47 27.4317 29.468 27.7572 29.7922C28.0826 30.1169 28.0842 30.6446 27.7612 30.9713L27.6534 31.0714C27.4151 31.309 27.343 31.6678 27.4706 31.9795C27.5991 32.2936 27.9047 32.4978 28.2427 32.4962H28.3838C28.8421 32.4962 29.2138 32.8693 29.2138 33.3294C29.2138 33.7896 28.8421 34.1627 28.3838 34.1627Z" fill="#FFBB01"/>
</svg>
