<svg width="51" height="50" viewBox="0 0 51 50" fill="none" xmlns="http://www.w3.org/2000/svg">
<path d="M49.9744 24.1667H30.989C30.5306 24.1667 30.1589 24.5399 30.1589 25.0001C30.1589 25.4603 30.5306 25.8334 30.989 25.8334H49.1443V34.1667H44.9936V28.3334C44.9936 27.8732 44.6219 27.5001 44.1635 27.5001C43.705 27.5001 43.3333 27.8732 43.3333 28.3334V34.1667H20.9195V25.8334H25.9004C26.3588 25.8334 26.7305 25.4603 26.7305 25.0001C26.7305 24.5399 26.3588 24.1667 25.9004 24.1667H20.0894C19.6309 24.1667 19.2592 24.5399 19.2592 25.0001V35.0001C19.2592 35.4603 19.6309 35.8334 20.0894 35.8334H27.5606V37.5001H20.0894C19.6309 37.5001 19.2592 37.8732 19.2592 38.3334V44.1667H16.7688V43.3334C16.7688 42.8732 16.3971 42.5001 15.9387 42.5001H13.4483V38.3334C13.4483 37.8732 13.0766 37.5001 12.6181 37.5001C12.1597 37.5001 11.788 37.8732 11.788 38.3334V43.3334C11.788 43.7936 12.1597 44.1667 12.6181 44.1667H15.1085V45.8334H6.80714V44.1667H9.29756C9.756 44.1667 10.1277 43.7936 10.1277 43.3334V38.3334C10.1277 37.8732 9.756 37.5001 9.29756 37.5001C8.83912 37.5001 8.46742 37.8732 8.46742 38.3334V42.5001H5.977C5.51856 42.5001 5.14686 42.8732 5.14686 43.3334V44.1667H1.8263C1.36785 44.1667 0.996155 44.5399 0.996155 45.0001C0.996155 45.4603 1.36785 45.8334 1.8263 45.8334H5.14686V46.6667C5.14686 47.127 5.51856 47.5001 5.977 47.5001H15.9387C16.3971 47.5001 16.7688 47.127 16.7688 46.6667V45.8334H19.2592V48.3334C19.2592 48.7936 19.6309 49.1667 20.0894 49.1667H49.9744C50.4329 49.1667 50.8046 48.7936 50.8046 48.3334V38.3334C50.8046 37.8732 50.4329 37.5001 49.9744 37.5001H42.5032V35.8334H49.9744C50.4329 35.8334 50.8046 35.4603 50.8046 35.0001V25.0001C50.8046 24.5399 50.4329 24.1667 49.9744 24.1667ZM49.1443 47.5001H20.9195V39.1667H43.3333V45.0001C43.3333 45.4603 43.705 45.8334 44.1635 45.8334C44.6219 45.8334 44.9936 45.4603 44.9936 45.0001V39.1667H49.1443V47.5001ZM40.8429 37.5001H29.2209V35.8334H40.8429V37.5001Z" fill="#FFBB01"/>
<path d="M25.9003 27.5001C24.5249 27.5001 23.4099 28.6194 23.4099 30.0001C23.4099 31.3811 24.5249 32.5001 25.9003 32.5001C27.2756 32.5001 28.3907 31.3811 28.3907 30.0001C28.3907 28.6194 27.2756 27.5001 25.9003 27.5001ZM25.9003 30.8334C25.4418 30.8334 25.0701 30.4603 25.0701 30.0001C25.0701 29.5399 25.4418 29.1667 25.9003 29.1667C26.3587 29.1667 26.7304 29.5399 26.7304 30.0001C26.7304 30.4603 26.3587 30.8334 25.9003 30.8334Z" fill="#FFBB01"/>
<path d="M30.8813 32.5001C31.3397 32.5001 31.7114 32.1269 31.7114 31.6667V28.3334C31.7114 27.8732 31.3397 27.5001 30.8813 27.5001C30.4228 27.5001 30.0511 27.8732 30.0511 28.3334V31.6667C30.0511 32.1269 30.4228 32.5001 30.8813 32.5001Z" fill="#FFBB01"/>
<path d="M35.0319 31.6667V28.3334C35.0319 27.8732 34.6602 27.5001 34.2018 27.5001C33.7433 27.5001 33.3716 27.8732 33.3716 28.3334V31.6667C33.3716 32.1269 33.7433 32.5001 34.2018 32.5001C34.6602 32.5001 35.0319 32.1269 35.0319 31.6667Z" fill="#FFBB01"/>
<path d="M38.3524 31.6667V28.3334C38.3524 27.8732 37.9807 27.5001 37.5223 27.5001C37.0638 27.5001 36.6921 27.8732 36.6921 28.3334V31.6667C36.6921 32.1269 37.0638 32.5001 37.5223 32.5001C37.9807 32.5001 38.3524 32.1269 38.3524 31.6667Z" fill="#FFBB01"/>
<path d="M41.6729 31.6667V28.3334C41.6729 27.8732 41.3012 27.5001 40.8428 27.5001C40.3843 27.5001 40.0126 27.8732 40.0126 28.3334V31.6667C40.0126 32.1269 40.3843 32.5001 40.8428 32.5001C41.3012 32.5001 41.6729 32.1269 41.6729 31.6667Z" fill="#FFBB01"/>
<path d="M27.5606 42.5001C27.1021 42.5001 26.7304 42.8732 26.7304 43.3334C26.7304 43.7936 26.3587 44.1668 25.9003 44.1668C25.4418 44.1668 25.0701 43.7936 25.0701 43.3334C25.0701 42.8732 25.4418 42.5001 25.9003 42.5001C26.3587 42.5001 26.7304 42.127 26.7304 41.6668C26.7304 41.2066 26.3587 40.8334 25.9003 40.8334C24.5249 40.8334 23.4099 41.9528 23.4099 43.3334C23.4099 44.7145 24.5249 45.8334 25.9003 45.8334C27.2756 45.8334 28.3907 44.7145 28.3907 43.3334C28.3907 42.8732 28.019 42.5001 27.5606 42.5001Z" fill="#FFBB01"/>
<path d="M30.8813 40.8334C30.4228 40.8334 30.0511 41.2066 30.0511 41.6668V45.0001C30.0511 45.4603 30.4228 45.8334 30.8813 45.8334C31.3397 45.8334 31.7114 45.4603 31.7114 45.0001V41.6668C31.7114 41.2066 31.3397 40.8334 30.8813 40.8334Z" fill="#FFBB01"/>
<path d="M34.2018 40.8334C33.7433 40.8334 33.3716 41.2066 33.3716 41.6668V45.0001C33.3716 45.4603 33.7433 45.8334 34.2018 45.8334C34.6602 45.8334 35.0319 45.4603 35.0319 45.0001V41.6668C35.0319 41.2066 34.6602 40.8334 34.2018 40.8334Z" fill="#FFBB01"/>
<path d="M37.5223 40.8334C37.0638 40.8334 36.6921 41.2066 36.6921 41.6668V45.0001C36.6921 45.4603 37.0638 45.8334 37.5223 45.8334C37.9807 45.8334 38.3524 45.4603 38.3524 45.0001V41.6668C38.3524 41.2066 37.9807 40.8334 37.5223 40.8334Z" fill="#FFBB01"/>
<path d="M40.8428 40.8334C40.3843 40.8334 40.0126 41.2066 40.0126 41.6668V45.0001C40.0126 45.4603 40.3843 45.8334 40.8428 45.8334C41.3012 45.8334 41.6729 45.4603 41.6729 45.0001V41.6668C41.6729 41.2066 41.3012 40.8334 40.8428 40.8334Z" fill="#FFBB01"/>
<path d="M7.28875 29.8419C7.39859 29.8907 7.51736 29.9159 7.63734 29.9167C8.02201 29.911 8.35196 29.6404 8.43506 29.2636C8.51775 28.8865 8.3321 28.5019 7.98594 28.3335C4.08371 26.5382 1.95364 22.2572 2.86849 18.047C3.78294 13.8368 7.49547 10.8347 11.788 10.8335C12.6303 10.8331 13.4686 10.9507 14.2785 11.1834C14.6919 11.3034 15.1277 11.0862 15.2829 10.6837C17.372 5.24428 22.5835 1.65948 28.3909 1.66681C35.0052 1.69936 40.7205 6.31362 42.1713 12.7919C42.2454 13.126 42.5154 13.3803 42.8518 13.4336C46.4748 14.0146 49.1415 17.1506 49.1444 20.8335C49.1407 21.076 49.1241 21.3181 49.0945 21.5586C49.0641 21.7824 49.1257 22.0094 49.2648 22.1868C49.4042 22.3642 49.6093 22.4774 49.8334 22.5001C50.0552 22.5233 50.2769 22.4562 50.4483 22.3134C50.6202 22.171 50.7276 21.9651 50.7467 21.7421C50.7832 21.4406 50.8026 21.1374 50.8046 20.8335C50.8217 16.5366 47.8469 12.811 43.6654 11.8918C41.8425 4.91388 35.5772 0.0359487 28.3909 0.000141419C22.1551 -0.0197967 16.5001 3.6708 13.9878 9.40037C13.2651 9.24453 12.5274 9.16599 11.788 9.16681C6.71965 9.1721 2.3379 12.7174 1.25604 17.6881C0.174589 22.6588 2.68406 27.7154 7.28875 29.8419Z" fill="#FFBB01"/>
<path d="M14.2784 30.5087C14.3469 30.5205 14.4175 30.5205 14.486 30.5087C15.4325 30.267 16.3404 29.8939 17.1839 29.4003C17.3749 29.2888 17.5135 29.1057 17.5694 28.8917C17.6254 28.6772 17.5941 28.4498 17.4827 28.2585C17.252 27.8647 16.7486 27.7308 16.3538 27.9587C15.6388 28.3745 14.8706 28.6915 14.0709 28.9002C13.6125 28.9576 13.2874 29.3775 13.3445 29.8377C13.4017 30.2979 13.82 30.6243 14.2784 30.5669V30.5087Z" fill="#FFBB01"/>
<path d="M10.958 35.8334C11.4164 35.8334 11.7881 35.4603 11.7881 35.0001V21.917L13.5894 24.6253C13.7422 24.8581 14.0009 24.9989 14.2785 25.0001C14.4419 25.0021 14.6016 24.9525 14.7349 24.8585C15.1139 24.6042 15.2177 24.0911 14.9676 23.7086L11.647 18.7086C11.647 18.7086 11.647 18.7086 11.6053 18.6667C11.448 18.4697 11.2097 18.355 10.958 18.355C10.7062 18.355 10.4679 18.4697 10.3106 18.6667C10.3106 18.6667 10.3106 18.6667 10.2689 18.7086L6.94832 23.7086C6.74564 24.0878 6.864 24.5594 7.22152 24.797C7.57862 25.0347 8.05733 24.9602 8.32648 24.6253L10.1278 21.917V35.0001C10.1278 35.4603 10.4995 35.8334 10.958 35.8334Z" fill="#FFBB01"/>
<path d="M32.1677 15.1417C31.7871 14.8907 31.2756 14.9948 31.0222 15.3753L29.2209 18.0836V8.33346C29.2209 7.87325 28.8492 7.50012 28.3907 7.50012C27.9323 7.50012 27.5606 7.87325 27.5606 8.33346V18.0836L25.7593 15.3753C25.6101 15.0966 25.317 14.9265 25.0021 14.9362C24.6871 14.946 24.405 15.1336 24.2733 15.4209C24.142 15.7081 24.1837 16.0455 24.3811 16.292L27.7017 21.292C27.8561 21.5223 28.1143 21.6603 28.3907 21.6603C28.6672 21.6603 28.9254 21.5223 29.0798 21.292L32.4004 16.292C32.6505 15.9095 32.5467 15.396 32.1677 15.1417Z" fill="#FFBB01"/>
</svg>
