<svg width="18" height="15" viewBox="0 0 18 15" fill="none" xmlns="http://www.w3.org/2000/svg">
<path d="M17.9212 2.60833C16.822 2.65772 16.846 2.6537 16.7217 2.66383L17.3727 0.851121C17.3727 0.851121 15.3406 1.57998 14.8254 1.71036C13.4724 0.524716 11.4613 0.47233 10.0235 1.3339C8.8461 2.03962 8.21413 3.25152 8.42492 4.66802C6.13344 4.358 4.20274 3.29897 2.67842 1.51368L2.19631 0.949134L1.83606 1.59415C1.38075 2.40918 1.22956 3.34108 1.41021 4.21813C1.48434 4.57794 1.61034 4.92111 1.78486 5.24245L1.37128 5.0862L1.32222 5.75994C1.27249 6.44434 1.50621 7.24326 1.94752 7.89685C2.07178 8.08092 2.23177 8.28305 2.43456 8.48245L2.22084 8.45048L2.48163 9.22249C2.82441 10.2368 3.53637 11.0216 4.46032 11.4578C3.53757 11.8396 2.79214 12.0832 1.56687 12.4761L0.445862 12.8354L1.48128 13.3874C1.87606 13.5978 3.27105 14.3007 4.64938 14.5115C7.71323 14.98 11.1628 14.5985 13.4851 12.5593C15.4411 10.8418 16.0829 8.39861 15.9496 5.85613C15.9295 5.47123 16.0376 5.10388 16.2541 4.82193C16.6878 4.25738 17.9186 2.6121 17.9212 2.60833ZM15.4354 4.22398C15.0758 4.69207 14.8957 5.2899 14.9279 5.90709C15.0625 8.47167 14.3468 10.4605 12.8006 11.8181C10.9944 13.4041 8.08107 14.0267 4.80791 13.5261C4.21514 13.4355 3.6025 13.2326 3.09546 13.0299C4.12274 12.6853 4.91604 12.3781 6.19717 11.7869L7.98561 10.9616L6.01105 10.8384C5.06523 10.7794 4.27767 10.3325 3.79356 9.60687C4.05061 9.59231 4.29847 9.55175 4.54525 9.48468L6.42849 8.9733L4.52952 8.51989C3.60677 8.29956 3.08079 7.76127 2.80201 7.34842C2.61895 7.07713 2.49936 6.79921 2.42763 6.543C2.61802 6.59279 2.84001 6.62827 3.19799 6.66285L4.95563 6.83236L3.56304 5.7732C2.55962 5.01016 2.15751 3.86377 2.45229 2.76172C5.58387 5.92854 9.26075 5.69053 9.63086 5.77424C9.5494 5.00275 9.54727 5.00093 9.52593 4.92748C9.05196 3.2939 10.0907 2.46443 10.5592 2.18365C11.5378 1.59727 13.0912 1.50887 14.1672 2.47496C14.3996 2.68346 14.7138 2.76549 15.0079 2.69425C15.2719 2.6303 15.4886 2.56257 15.7007 2.48887L15.2591 3.71831L15.8228 3.7187C15.7164 3.85779 15.5888 4.02431 15.4354 4.22398Z" fill="white"/>
</svg>
