<svg width="16" height="19" viewBox="0 0 16 19" fill="none" xmlns="http://www.w3.org/2000/svg">
<path d="M8.16163 9.7911C8.18018 9.7911 8.19872 9.7911 8.22098 9.7911C8.22839 9.7911 8.23581 9.7911 8.24323 9.7911C8.25435 9.7911 8.26919 9.7911 8.28032 9.7911C9.36702 9.77256 10.246 9.39055 10.8951 8.6599C12.323 7.05025 12.0856 4.29085 12.0597 4.02752C11.9669 2.05069 11.0323 1.10493 10.2609 0.663576C9.68598 0.333486 9.01467 0.15546 8.26548 0.140625H8.23952C8.23581 0.140625 8.22839 0.140625 8.22468 0.140625H8.20243C7.79075 0.140625 6.98221 0.207385 6.20706 0.64874C5.4282 1.0901 4.47873 2.03586 4.386 4.02752C4.36004 4.29085 4.12267 7.05025 5.55059 8.6599C6.19593 9.39055 7.07493 9.77256 8.16163 9.7911ZM5.37627 4.12024C5.37627 4.10912 5.37998 4.09799 5.37998 4.09057C5.50237 1.43131 7.39019 1.14573 8.19872 1.14573H8.21356C8.22098 1.14573 8.2321 1.14573 8.24323 1.14573C9.24462 1.16798 10.947 1.57596 11.062 4.09057C11.062 4.1017 11.062 4.11282 11.0657 4.12024C11.0694 4.1462 11.329 6.66824 10.1496 7.99601C9.68227 8.52267 9.05918 8.78229 8.23952 8.78971C8.2321 8.78971 8.22839 8.78971 8.22098 8.78971C8.21356 8.78971 8.20985 8.78971 8.20243 8.78971C7.38648 8.78229 6.75968 8.52267 6.29607 7.99601C5.12036 6.67565 5.37256 4.1425 5.37627 4.12024Z" fill="#949494"/>
<path d="M15.8427 14.3678C15.8427 14.3641 15.8427 14.3604 15.8427 14.3567C15.8427 14.327 15.839 14.2973 15.839 14.264C15.8168 13.5296 15.7685 11.8124 14.1589 11.2635C14.1478 11.2598 14.1329 11.2561 14.1218 11.2524C12.4491 10.8258 11.0583 9.86154 11.0434 9.85041C10.8172 9.69093 10.5056 9.74656 10.3462 9.9728C10.1867 10.199 10.2423 10.5106 10.4686 10.6701C10.5316 10.7146 12.0077 11.7419 13.8548 12.2167C14.7189 12.5245 14.8154 13.448 14.8413 14.2936C14.8413 14.327 14.8413 14.3567 14.845 14.3864C14.8487 14.7202 14.8265 15.2357 14.7671 15.5324C14.1663 15.8736 11.8112 17.053 8.2284 17.053C4.66047 17.053 2.2905 15.8699 1.68596 15.5287C1.62661 15.232 1.60065 14.7164 1.60807 14.3826C1.60807 14.353 1.61178 14.3233 1.61178 14.2899C1.63774 13.4443 1.73417 12.5208 2.59834 12.213C4.44536 11.7382 5.92149 10.7072 5.98454 10.6664C6.21078 10.5069 6.26641 10.1953 6.10693 9.96909C5.94745 9.74285 5.6359 9.68722 5.40966 9.8467C5.39483 9.85783 4.01142 10.8221 2.3313 11.2487C2.31646 11.2524 2.30534 11.2561 2.29421 11.2598C0.684562 11.8124 0.636347 13.5296 0.614093 14.2603C0.614093 14.2936 0.614093 14.3233 0.610384 14.353C0.610384 14.3567 0.610384 14.3604 0.610384 14.3641C0.606676 14.557 0.602967 15.5472 0.799537 16.0442C0.836626 16.1407 0.903385 16.2222 0.992398 16.2779C1.10366 16.3521 3.77034 18.0507 8.23211 18.0507C12.6939 18.0507 15.3606 16.3483 15.4718 16.2779C15.5571 16.2222 15.6276 16.1407 15.6647 16.0442C15.8501 15.5509 15.8464 14.5607 15.8427 14.3678Z" fill="#949494"/>
</svg>
